<svg width="28" height="22" viewBox="0 0 28 22" fill="none" xmlns="http://www.w3.org/2000/svg">
<path d="M22.8667 19.25L15.5167 13.475C14.9333 13.8417 14.2625 14.1319 13.5042 14.3458C12.7458 14.5597 11.9389 14.6667 11.0833 14.6667C8.96389 14.6667 7.17014 14.0899 5.70208 12.9365C4.23403 11.783 3.5 10.3736 3.5 8.70833C3.5 7.04306 4.23403 5.63368 5.70208 4.48021C7.17014 3.32674 8.96389 2.75 11.0833 2.75C13.2028 2.75 14.9965 3.32674 16.4646 4.48021C17.9326 5.63368 18.6667 7.04306 18.6667 8.70833C18.6667 9.38056 18.5306 10.0146 18.2583 10.6104C17.9861 11.2063 17.6167 11.7333 17.15 12.1917L24.5 17.9667L22.8667 19.25ZM11.0833 12.8333C12.5417 12.8333 13.7812 12.4323 14.8021 11.6302C15.8229 10.8281 16.3333 9.85417 16.3333 8.70833C16.3333 7.5625 15.8229 6.58854 14.8021 5.78646C13.7812 4.98438 12.5417 4.58333 11.0833 4.58333C9.625 4.58333 8.38542 4.98438 7.36458 5.78646C6.34375 6.58854 5.83333 7.5625 5.83333 8.70833C5.83333 9.85417 6.34375 10.8281 7.36458 11.6302C8.38542 12.4323 9.625 12.8333 11.0833 12.8333Z" fill="#1D1B20"/>
</svg>
